<?xml version="1.0" standalone="no"?>
<!DOCTYPE svg PUBLIC "-//W3C//DTD SVG 20010904//EN"
 "http://www.w3.org/TR/2001/REC-SVG-20010904/DTD/svg10.dtd">
<svg version="1.0" xmlns="http://www.w3.org/2000/svg"
 width="512.000000pt" height="512.000000pt" viewBox="0 0 512.000000 512.000000"
 preserveAspectRatio="xMidYMid meet">
<metadata>
Created by potrace 1.14, written by Peter Selinger 2001-2017
</metadata>
<g transform="translate(0.000000,512.000000) scale(0.100000,-0.100000)"
fill="#000000" stroke="none">
<path d="M1295 4862 c-122 -42 -142 -57 -154 -113 -12 -54 6 -122 38 -149 10
-8 41 -87 70 -180 75 -233 99 -302 108 -311 10 -10 301 86 321 105 10 10 7 26
-14 82 -86 227 -136 383 -139 434 -3 64 -19 98 -62 134 -39 33 -67 32 -168 -2z"/>
<path d="M3160 4883 c-14 -2 -39 -11 -57 -19 -17 -8 -36 -14 -42 -14 -7 0 -33
-11 -60 -24 -46 -24 -49 -27 -55 -76 -8 -58 7 -126 33 -149 17 -15 36 -67 78
-211 8 -30 19 -62 23 -70 3 -8 19 -58 35 -110 16 -52 31 -98 35 -103 3 -4 62
11 131 33 68 22 141 45 162 51 22 7 37 19 37 28 0 8 -34 115 -75 238 -44 130
-75 240 -75 264 0 53 -24 108 -62 142 -30 26 -50 30 -108 20z"/>
<path d="M1665 4108 c-11 -6 -76 -31 -145 -54 -81 -28 -126 -48 -128 -58 -2
-9 6 -45 18 -80 18 -52 21 -80 17 -143 -2 -43 -8 -88 -12 -100 l-7 -23 371 0
c204 0 371 4 371 8 0 22 -139 130 -225 175 -77 40 -136 117 -173 227 -15 45
-23 55 -43 57 -13 2 -33 -2 -44 -9z"/>
<path d="M3365 4069 c-77 -27 -148 -49 -157 -49 -27 0 -29 -15 -12 -77 40
-146 40 -141 7 -270 l-5 -23 366 0 c204 0 366 4 366 9 0 12 -75 78 -125 109
-22 14 -58 37 -80 51 -82 51 -138 120 -171 211 -17 46 -35 85 -40 86 -5 1 -72
-20 -149 -47z"/>
<path d="M197 3603 c-5 -43 6 -63 35 -63 62 0 180 -114 230 -220 33 -73 62
-149 74 -195 3 -11 10 -29 14 -40 5 -11 18 -45 28 -75 79 -224 94 -267 101
-280 5 -9 12 -31 16 -50 4 -19 11 -41 16 -50 5 -8 23 -55 40 -105 32 -93 66
-188 119 -335 17 -47 44 -123 60 -170 16 -47 37 -105 46 -130 9 -25 36 -103
60 -175 25 -71 47 -137 51 -145 11 -29 74 -205 99 -280 13 -41 29 -84 34 -95
5 -11 16 -41 25 -67 8 -26 29 -84 46 -130 17 -46 33 -92 36 -103 3 -11 11 -34
19 -52 8 -17 14 -36 14 -42 0 -6 7 -25 15 -43 8 -18 30 -80 50 -138 47 -136
95 -270 105 -295 5 -11 12 -31 15 -45 4 -14 14 -40 23 -57 l17 -33 161 0 162
0 142 432 c79 238 151 458 161 490 10 31 23 67 28 80 5 12 23 68 40 123 17 55
36 114 42 130 5 17 42 127 81 245 38 118 82 251 98 295 69 202 92 272 100 304
10 41 27 61 34 40 17 -47 219 -664 232 -709 9 -30 21 -64 25 -75 9 -21 113
-338 175 -535 21 -63 52 -158 70 -210 18 -52 54 -160 80 -240 26 -80 64 -194
84 -255 l37 -110 165 -3 165 -2 11 37 c6 21 15 52 21 68 6 17 25 77 42 135 17
58 37 123 44 145 7 22 23 74 35 115 37 125 51 173 65 215 8 22 28 87 45 145
18 58 38 123 45 145 8 22 17 57 21 78 3 20 10 40 15 43 5 3 9 13 9 22 0 10 14
60 30 112 47 149 66 209 90 290 12 41 25 84 30 95 4 11 16 49 25 85 10 36 23
83 30 105 42 131 87 277 101 325 9 30 22 73 30 95 11 36 39 126 109 360 37
124 73 236 90 283 27 74 108 220 160 286 45 58 163 153 208 169 14 5 18 16 15
49 l-3 43 -487 3 c-453 2 -514 -1 -478 -23 21 -13 57 -111 160 -435 29 -91 58
-181 65 -200 8 -19 20 -57 29 -85 9 -27 29 -92 46 -142 16 -51 30 -99 30 -106
0 -7 -13 -55 -30 -107 -16 -52 -37 -120 -46 -150 -10 -30 -23 -73 -30 -95 -7
-22 -27 -87 -44 -145 -18 -58 -40 -127 -50 -155 -9 -27 -27 -84 -40 -125 -12
-41 -26 -86 -30 -100 -5 -14 -22 -72 -40 -130 -35 -117 -123 -399 -148 -473
-9 -26 -20 -46 -25 -44 -11 3 -47 104 -47 132 0 12 -4 25 -9 31 -5 5 -35 90
-66 189 -31 99 -61 189 -65 200 -4 11 -25 74 -46 140 -20 66 -49 156 -64 200
-15 44 -41 123 -58 175 -70 221 -205 638 -217 670 -7 19 -21 62 -30 95 -10 33
-21 68 -26 77 -5 10 -13 34 -18 55 -6 21 -19 65 -31 98 -13 35 -24 95 -27 145
-4 85 5 135 50 255 8 22 13 43 10 47 -2 5 -224 8 -494 8 -475 0 -489 -1 -489
-19 0 -11 4 -21 9 -23 18 -7 128 -318 281 -798 29 -91 62 -187 72 -214 20 -49
20 -49 -2 -120 -12 -39 -28 -87 -35 -106 -20 -49 -94 -266 -110 -320 -17 -58
-163 -489 -174 -515 -5 -11 -27 -76 -50 -145 -62 -189 -95 -278 -105 -282 -7
-3 -71 172 -111 302 -7 25 -45 137 -84 250 -39 113 -116 338 -171 500 -116
341 -255 748 -263 770 -3 8 -31 90 -61 181 -52 154 -56 174 -56 259 0 88 27
218 51 244 32 35 23 36 -585 36 l-594 0 -5 -37z"/>
<path d="M3275 3541 c-11 -19 -45 -149 -45 -174 0 -35 32 -152 93 -337 30 -91
71 -219 92 -285 20 -66 41 -129 45 -140 5 -11 12 -31 15 -45 3 -14 12 -41 20
-60 7 -19 37 -109 65 -200 29 -91 56 -174 60 -185 5 -11 41 -121 80 -245 40
-124 82 -253 93 -287 11 -35 23 -63 26 -63 4 0 11 19 18 43 6 23 18 68 27 99
18 63 20 53 -39 233 -13 39 -53 165 -91 280 -37 116 -79 246 -94 290 -30 88
-204 623 -252 775 -17 52 -34 104 -38 115 -4 11 -20 58 -35 105 -31 97 -31 95
-40 81z"/>
<path d="M1474 3504 c-13 -28 -18 -66 -18 -134 -1 -97 -1 -98 75 -315 6 -16
28 -84 50 -150 22 -66 44 -129 49 -140 5 -11 39 -110 75 -220 37 -110 71 -209
76 -220 10 -22 105 -303 119 -350 4 -16 34 -102 65 -190 31 -88 66 -191 79
-229 12 -39 26 -71 32 -73 5 -1 22 37 38 86 29 92 29 107 -4 186 -12 30 -60
175 -71 215 -6 19 -14 44 -19 55 -12 27 -110 312 -120 350 -8 31 -57 174 -71
210 -15 37 -101 289 -110 325 -6 19 -14 44 -19 55 -8 17 -78 220 -166 485 -14
41 -29 79 -34 84 -5 5 -16 -8 -26 -30z"/>
<path d="M4580 814 c-109 -29 -190 -98 -238 -203 -22 -46 -26 -71 -27 -141 0
-76 3 -92 33 -152 56 -113 142 -178 269 -200 206 -35 397 114 419 325 5 52 2
75 -19 135 -43 123 -129 205 -252 237 -72 18 -113 18 -185 -1z m207 -66 c147
-55 229 -229 178 -379 -23 -68 -92 -141 -166 -174 -55 -24 -70 -27 -143 -23
-70 4 -89 9 -136 37 -60 36 -115 100 -136 159 -21 58 -17 169 7 222 34 77 114
145 199 171 50 15 138 9 197 -13z"/>
<path d="M4582 632 c-22 -3 -22 -4 -20 -165 l3 -162 25 0 c23 0 25 4 28 53 l3
52 47 0 47 0 21 -53 c13 -30 29 -53 39 -55 31 -7 36 13 15 61 l-21 47 36 35
c49 49 48 114 -3 165 -15 15 -165 30 -220 22z m182 -65 c11 -8 19 -26 19 -42
0 -41 -27 -55 -100 -55 l-63 0 0 55 0 55 63 0 c37 0 71 -6 81 -13z"/>
</g>
</svg>
